<?xml version="1.0" encoding="utf-8"?>
<!-- Svg Vector Icons : http://www.onlinewebfonts.com/icon -->
<!DOCTYPE svg PUBLIC "-//W3C//DTD SVG 1.1//EN" "http://www.w3.org/Graphics/SVG/1.1/DTD/svg11.dtd">
<svg version="1.1" xmlns="http://www.w3.org/2000/svg" xmlns:xlink="http://www.w3.org/1999/xlink" x="0px" y="0px" viewBox="0 0 1000 1000" enable-background="new 0 0 1000 1000" xml:space="preserve">
<metadata> Svg Vector Icons : http://www.onlinewebfonts.com/icon </metadata>
<g><path d="M190.5,364.6c95.6,117.6,190.6,236.3,293.2,347.1C585.6,664,671.8,604.8,699.3,476.3C602.3,361.7,501.4,251,406,135.2C386.8,264.6,310.1,336.2,190.5,364.6 M495.7,216.6c72.9,86.5,149.8,168.7,221.3,256.4c-19.5,108.8-91.2,177.5-167.5,223.5c-21,12.9-48.8,20.9-62.8,39.4c127.5-38.7,248-110,311.2-223.5c-92.5-109-188.1-214.7-278.2-326C511,195.8,502.3,205.4,495.7,216.6 M184.6,473C279,595.5,372.4,718.6,468.8,838.2c1.6-35.3-3.4-77.8,2.8-108.5c-93.5-116.6-191.3-229.3-287.1-344.2V473z M537.7,738.8c-17.9,7-39.5,4.8-51,24.3c123.6-31.1,250.4-85.4,326.1-175.2c-10.5-7.6-17.4-18.4-33-21.1C720.8,642.4,633.5,701.8,537.7,738.8 M486.7,793c2,19.4-3.7,46.6,2.9,60.6C582.1,805,691,773,794.9,735.9c3.1-23.5,15.1-53.5,9-75.7C715.7,721.9,596.3,752.8,486.7,793"/><path d="M500.1,10.1C229.6,10.1,10,229.4,10,500c0,270.6,219.6,489.9,490.1,489.9C770.7,989.9,990,770.7,990,500C990,229.4,770.7,10.1,500.1,10.1 M500.1,945.4c-243.7,0-441.3-197.7-441.3-441.3c0-243.9,197.5-441.3,441.3-441.3c243.7,0,441.4,197.5,441.4,441.3C941.4,747.7,743.8,945.4,500.1,945.4"/></g>
</svg>